<?xml version="1.0" encoding="UTF-8"?>
<svg width="65px" height="65px" viewBox="0 0 65 65" version="1.1" xmlns="http://www.w3.org/2000/svg" xmlns:xlink="http://www.w3.org/1999/xlink">
    <!-- Generator: Sketch 51 (57462) - http://www.bohemiancoding.com/sketch -->
    <title>Banana</title>
    <desc>Created with Sketch.</desc>
    <defs></defs>
    <g id="Banana" stroke="none" stroke-width="1" fill="none" fill-rule="evenodd">
        <g transform="translate(1.000000, 6.000000)" fill="none" id="Group-2" stroke="#666666">
            <g>
                <path d="M15.2,40.47875 C22.4666667,39.8825 29.6,37.43125 36,33.39 C46.5333333,26.6325 53.8666667,17.15875 56.1333333,7.2875 C50.5333333,16.5625 40,23.65125 27.8,26.96375 C19.8666667,29.08375 11.9333333,29.15 4.73333333,27.49375 C3.26666667,27.1625 1.66666667,27.825 0.866666667,29.15 C-0.0666666667,30.6075 0.2,32.595 1.46666667,33.72125 C4.86666667,36.90125 9,39.28625 13.6,40.81 C14.1333333,40.61125 14.6666667,40.47875 15.2,40.47875 Z" id="Shape" stroke-width="0.5" fill-rule="nonzero"
                stroke-dasharray="2"
                  ></path>
                <path d="M62.1333333,8.745 L63.2666667,2.385 C63.4,1.7225 62.9333333,1.06 62.2666667,0.9275 L59.6,0.33125 C58.7333333,0.1325 57.9333333,0.86125 58.0666667,1.7225 C58.2666667,3.24625 58.4666667,5.49875 58.4,7.48625 C55.9333333,18.1525 48,28.2225 37.2,35.17875 C30.2666667,39.6175 22.7333333,42.06875 15.4,42.665 C13.8666667,42.7975 12.6,43.92375 12.2,45.4475 C11.8,47.10375 12.6,48.8925 14.2,49.62125 C24.3333333,54.39125 37.2,53.795 48,46.905 C61.5333333,38.16 66.4666667,22.19375 62.1333333,8.745 Z" id="Shape" stroke-width="0.5"
                  fill-rule="nonzero"
                  stroke-dasharray="2"
                  ></path>
            </g>
        </g>
    </g>
</svg>
