<?xml version="1.0" encoding="UTF-8"?>
<svg width="65px" height="65px" viewBox="0 0 65 65" version="1.1" xmlns="http://www.w3.org/2000/svg" xmlns:xlink="http://www.w3.org/1999/xlink">
    <!-- Generator: Sketch 51 (57462) - http://www.bohemiancoding.com/sketch -->
    <title>Can</title>
    <desc>Created with Sketch.</desc>
    <defs></defs>
    <g id="Can" stroke="none" stroke-width="1" fill="none" fill-rule="evenodd">
        <g transform="translate(18.000000, 6.000000)" fill="none" id="Group-3" stroke="#666666">
            <g>
                <path d="M27.411442,5.32308823 C26.5616058,4.2770718 25.2091188,2.15182248 25.2091188,1.24169156 C25.2158781,0.701169212 25.2287824,0.602123777 25.2287824,0.602123777 C25.2287824,0.602123777 25.4856381,0.572530933 25.4880961,0.420943102 C25.4899396,0.26935527 25.516977,0 25.2674951,0 C25.0167842,0 14.0942688,0 14.0942688,0 C14.0942688,0 3.17175345,0 2.92165704,0 C2.67156063,0 2.69859808,0.268751335 2.70044154,0.420943102 C2.702285,0.572530933 2.95914078,0.602123777 2.95914078,0.602123777 C2.95914078,0.602123777 2.9726595,0.701169212 2.97941887,1.24169156 C2.97941887,2.15182248 1.62631738,4.27646787 0.777710142,5.32308823 C-0.0721260745,6.36850073 0.00161242582,6.94888282 0.00161242582,6.94888282 C0.00161242582,6.94888282 0.00161242582,48.162051 0.00161242582,48.6760001 C0.00161242582,49.1905533 0.283047702,49.4206527 1.24287718,49.9019894 C2.20209217,50.38393 2.72563553,51.7017174 2.94009166,52.0840086 C3.15516229,52.4662999 3.43967,52.4204008 3.43967,52.4204008 L14.0954978,52.4204008 L24.7513256,52.4204008 C24.7513256,52.4204008 25.0364478,52.4662999 25.2502894,52.0840086 C25.4653601,51.7017174 25.9882889,50.38393 26.9481184,49.9019894 C27.9073334,49.4206527 28.1887687,49.1899493 28.1887687,48.6760001 C28.1887687,48.162051 28.1887687,6.94888282 28.1887687,6.94888282 C28.1887687,6.94888282 28.2606637,6.36910466 27.411442,5.32308823 Z" id="Shape" stroke-width="0.5" fill-rule="nonzero"></path>
            </g>
        </g>
    </g>
</svg>
